<?xml version="1.0" encoding="UTF-8"?>
<svg width="18px" height="18px" viewBox="0 0 18 18" version="1.1" xmlns="http://www.w3.org/2000/svg" xmlns:xlink="http://www.w3.org/1999/xlink">
    <title>grid-icon</title>
    <g id="Page-1" stroke="none" stroke-width="1" fill="none" fill-rule="evenodd">
        <g id="MacBook-Pro-13&quot;-Copy-3" transform="translate(-932.000000, -22.000000)" fill="#82B044" fill-rule="nonzero">
            <path d="M938.268096,22.0001529 C938.575477,22.1048735 938.873027,22.2348985 939.1579,22.3888226 C939.75579,22.7753691 939.997067,23.3762939 940.002685,24.0671622 C940.013236,25.3554467 940.013236,26.6429396 940.002685,27.9299288 C940.002685,28.7754229 939.622843,29.4283454 938.848393,29.7903324 L938.848393,29.7910352 C938.555075,29.9175427 938.238546,29.9836068 937.91919,29.9836068 C936.646033,30.0053937 935.371544,29.9976633 934.098261,29.9836068 C933.034004,29.9836068 932.29755,29.3883136 932.043649,28.3537564 L932.042946,28.3530537 C932.030285,28.3207233 932.016216,28.2890964 932.000038,28.2581731 L932.000038,23.7439053 C932.019735,23.7024385 932.035912,23.6609716 932.047167,23.6195048 C932.168153,23.1282251 932.384098,22.6854526 932.825128,22.4141647 L932.824425,22.4141647 C933.123379,22.2546234 933.432867,22.1161763 933.750098,22.0001529 L938.268096,22.0001529 Z M932,33.7113401 C932.118876,33.3943698 932.263768,33.0879429 932.434007,32.7955681 C932.761791,32.3000782 933.321002,32.0055982 933.916083,32.0168434 C935.288423,32.0027869 936.658566,32.0077067 938.031068,32.0168434 L938.030365,32.0168434 C938.56496,32.0161406 939.076326,32.2319054 939.449127,32.61354 C939.822631,32.9958764 940.025211,33.5124532 940.011147,34.0458889 C940.020292,35.3482255 940.027326,36.6526131 940.011147,37.9556154 C939.994969,39.1230097 939.202934,39.9509613 938.040989,39.9775899 C936.692562,40.0085151 935.339922,40.0064064 933.99299,39.9775899 C932.985006,39.9529908 932.306228,39.3682447 932.048762,38.3948254 C932.038211,38.3512499 932.019922,38.3118917 932.000227,38.2725335 L932.000227,33.711126 L932,33.7113401 Z M948.245837,22.0001529 C948.610896,22.0746518 948.95557,22.2278635 949.255928,22.4478553 C949.690638,22.7760708 949.955109,23.2814025 949.976213,23.82468 C950.001535,24.9330415 949.992391,26.0427705 949.995909,27.1532552 L949.995909,28.0022758 L949.996613,28.0022758 C949.995909,28.5413431 949.77644,29.0572182 949.388872,29.4318179 C949.002008,29.8064176 948.478667,30.0088309 947.939858,29.9926738 C946.650513,29.9926738 945.361239,30.0032162 944.07193,29.9926738 C942.897956,29.9779146 942.058735,29.1970724 942.029924,28.0401496 C941.995456,26.6780786 941.998973,25.3146762 942.029924,23.9524793 C942.04962,22.9586926 942.655257,22.2769465 943.627353,22.0393582 C943.661116,22.0288157 943.694175,22.0154626 943.726532,22 L948.245837,22.0001529 Z M949.988746,35.9913242 C949.988746,36.7110161 950.014068,37.4307081 949.988746,38.136366 L949.988746,38.1356632 C949.954279,39.1294499 949.155917,39.9264547 948.161384,39.9602623 C946.720815,39.9939978 945.280246,39.9939978 943.839677,39.9602623 C942.856326,39.9223093 942.069218,39.1309252 942.036805,38.1484378 C942.004448,36.7090539 942.004448,35.26967 942.036805,33.8302861 C942.067051,32.847043 942.853463,32.0542483 943.837516,32.0170223 C945.278085,31.9846919 946.723516,31.9846919 948.173269,32.0170223 L948.173972,32.0170223 C949.148895,32.062003 949.928963,32.8414294 949.974683,33.8162521 C950.00704,34.5359441 949.974683,35.255636 949.974683,35.975328 L949.988746,35.9913242 Z" id="grid-icon"></path>
        </g>
    </g>
</svg>