<?xml version="1.0" encoding="UTF-8"?>
<svg width="100pt" height="100pt" version="1.1" viewBox="0 0 100 100" xmlns="http://www.w3.org/2000/svg">
 <g>
  <path d="m57.293 57.293c0 5.1758-4.1992 9.375-9.375 9.375-5.1797 0-9.375-4.1992-9.375-9.375 0-5.1797 4.1953-9.375 9.375-9.375 5.1758 0 9.375 4.1953 9.375 9.375"/>
  <path d="m76.727 30.891-15.953-15.949c-1.5625-1.5625-3.6836-2.4414-5.8906-2.4414h-21.551c-6.9023 0-12.5 5.5977-12.5 12.5v50c0 6.9023 5.5977 12.5 12.5 12.5h33.336c6.9023 0 12.5-5.5977 12.5-12.5v-38.215c0-2.2109-0.87891-4.3281-2.4414-5.8945zm-10.059 47.234c-1.2227 1.2188-3.1992 1.2188-4.4219 0l-7.0781-7.0781c-4.3516 2.3906-9.5977 2.4961-14.043 0.28125-4.0078-1.875-7.0078-5.3867-8.2305-9.6367-1.1836-4.0391-0.6875-8.3867 1.375-12.055 2.0586-3.6719 5.5117-6.3555 9.5781-7.4453 4.0664-1.0938 8.3984-0.5 12.02 1.6445 3.625 2.1445 6.2266 5.6562 7.2266 9.7461 1.1641 4.7227 0.023438 9.7227-3.0781 13.473l6.6523 6.6523c1.2188 1.2188 1.2188 3.1992 0 4.418zm-4.168-44.793c-2.3008 0-4.1641-1.8672-4.168-4.1641v-10.777l14.941 14.941z"/>
 </g>
</svg>
