<?xml version="1.0" encoding="UTF-8"?>
<svg width="22px" height="28px" viewBox="0 0 22 28" version="1.1" xmlns="http://www.w3.org/2000/svg" xmlns:xlink="http://www.w3.org/1999/xlink">
    <title>icon</title>
    <g id="Page-1" stroke="none" stroke-width="1" fill="none" fill-rule="evenodd">
        <g id="MacBook-Pro-13&quot;-Copy-3" transform="translate(-35.000000, -16.000000)" fill-rule="nonzero" stroke="#FFD344" stroke-width="1.6">
            <path d="M47.6740949,17 C48.430746,17 49.1579471,17.3013234 49.6936369,17.8370132 L55.1629868,23.3049918 C55.6986732,23.8420529 56,24.5679169 56,25.3259051 L56,38.4275919 C56,40.7939866 54.0808763,42.7131103 51.7144816,42.7131103 L40.2855184,42.7131103 C37.9191237,42.7131103 36,40.7939866 36,38.4275919 L36,21.2855184 C36,18.9191237 37.9191237,17 40.2855184,17 Z M48.0115195,27.7429546 C46.7698848,27.0077311 45.2846956,26.8041518 43.890565,27.1791518 C42.4964344,27.5527804 41.3125686,28.4728298 40.6067951,29.7317094 C39.8996846,30.9893548 39.7296009,32.4798923 40.1353881,33.8646633 C40.5545804,35.3217396 41.5831048,36.525696 42.9571448,37.1685237 C44.481178,37.9278662 46.2797586,37.8916964 47.7716676,37.0720996 L50.1983338,39.4987658 C50.6175261,39.916621 51.2951522,39.916621 51.7143445,39.4987658 C52.1323368,39.0809277 52.1323368,38.4019645 51.7144816,37.9841093 L49.4337973,35.703425 C50.4971332,34.4176666 50.8881994,32.7034593 50.4890976,31.0843219 C50.1462562,29.6821345 49.2543198,28.4781781 48.0115195,27.7429546 Z M45.2860669,29.1425535 C47.0605458,29.1425535 48.5002057,30.5808763 48.5002057,32.3566923 C48.5002057,34.1311711 47.0605458,35.570831 45.2860669,35.570831 C43.510251,35.570831 42.0719281,34.1311711 42.0719281,32.3566923 C42.0719281,30.5808763 43.510251,29.1425535 45.2860669,29.1425535 Z M48.856418,19.0194391 L48.856418,22.7142416 C48.8577551,23.5017142 49.4965716,24.1418678 50.2853812,24.1418678 L53.9788124,24.1418678 L48.856418,19.0194391 Z" id="icon"></path>
        </g>
    </g>
</svg>