<?xml version="1.0" encoding="UTF-8"?>
<svg width="21px" height="13px" viewBox="0 0 21 13" version="1.1" xmlns="http://www.w3.org/2000/svg" xmlns:xlink="http://www.w3.org/1999/xlink">
    <title>Group</title>
    <g id="Page-1" stroke="none" stroke-width="1" fill="none" fill-rule="evenodd">
        <g id="MacBook-Pro-13&quot;-Copy-3" transform="translate(-36.000000, -70.000000)" fill="#FFFFFF">
            <g id="Group" transform="translate(36.000000, 70.000000)">
                <!-- <path d="M16.1634019,4.08047662 L19.1559649,6.69896932 C19.3222196,6.84444214 19.3390666,7.09714719 19.1935938,7.26340185 C19.1819,7.27676616 19.1693292,7.28933691 19.1559649,7.30103068 L16.1634019,9.91952338 C15.9971472,10.0649962 15.7444421,10.0481492 15.5989693,9.88189454 C15.5351673,9.80897794 15.5,9.71538196 15.5,9.6184927 L15.5,4.3815073 C15.5,4.1605934 15.6790861,3.9815073 15.9,3.9815073 C15.9968893,3.9815073 16.0904853,4.0166746 16.1634019,4.08047662 Z" id="Path-3-Copy-4" transform="translate(17.500000, 7.000000) rotate(90.000000) translate(-17.500000, -7.000000) "></path> -->
                <path d="M10.7197302,5.3603878 C10.7197302,3.92765742 10.1621238,2.58190495 9.15056432,1.5692428 C8.13793879,0.556567648 6.79122523,0 5.36012513,0 C3.928505,0 2.58177843,0.556606651 1.5691659,1.5692428 C0.557567418,2.58191795 0,3.92778743 0,5.3603878 C0,6.79298816 0.557606419,8.13887064 1.5691659,9.14997265 C2.58179144,10.1626478 3.928505,10.7202555 5.36012513,10.7202555 C6.45603215,10.7202555 7.50118505,10.3937048 8.38535218,9.78528846 L11.308915,12.7089945 C11.5024021,12.9024911 11.7563158,13 12.0097224,13 C12.2631291,13 12.5165357,12.9024911 12.7105298,12.7089945 C13.0964901,12.3230154 13.0964901,11.6963194 12.7105298,11.3087671 L9.78696705,8.38506104 C10.3937025,7.50157864 10.7197302,6.45638753 10.7197302,5.3603878 Z M5.3595141,8.73923927 C3.49679587,8.73923927 1.97937213,7.22330132 1.97937213,5.3604918 C1.97937213,3.49768229 3.49679587,1.9801842 5.3595141,1.9801842 C7.22223233,1.9801842 8.73965607,3.49612215 8.73965607,5.3604918 C8.73965607,7.22486146 7.22223233,8.73923927 5.3595141,8.73923927 Z" id="Shape-Copy" fill-rule="nonzero"></path>
            </g>
        </g>
    </g>
</svg>
