<?xml version="1.0" encoding="UTF-8"?>
<svg width="23px" height="20px" viewBox="0 0 23 20" version="1.1" xmlns="http://www.w3.org/2000/svg" xmlns:xlink="http://www.w3.org/1999/xlink">
    <title>version-icon</title>
    <g id="Page-1" stroke="none" stroke-width="1" fill="none" fill-rule="evenodd">
        <g id="MacBook-Pro-13&quot;-Copy-3" transform="translate(-786.000000, -21.000000)" fill="#A16BA7" fill-rule="nonzero">
            <path d="M795.857143,23.4864865 C795.857143,22.1137338 796.959907,21 798.321429,21 L806.535714,21 C807.897235,21 809,22.1137338 809,23.4864865 L809,38.4054054 C809,39.7791925 807.897235,40.8918919 806.535714,40.8918919 L798.321429,40.8918919 C796.959907,40.8918919 795.857143,39.7791925 795.857143,38.4054054 L795.857143,23.4864865 Z M789.285714,25.1441441 C789.285714,23.7713914 790.389504,22.6576577 791.75,22.6576577 L793.392857,22.6576577 C793.846706,22.6576577 794.214286,23.0285486 794.214286,23.4864865 L794.214286,38.4054054 C794.214286,38.8633433 793.846706,39.2342342 793.392857,39.2342342 L791.75,39.2342342 C790.389504,39.2342342 789.285714,38.1215348 789.285714,36.7477477 L789.285714,25.1441441 Z M786.821429,25.1441441 C787.275278,25.1441441 787.642857,25.5150351 787.642857,25.972973 L787.642857,35.9189189 C787.642857,36.3768568 787.275278,36.7477477 786.821429,36.7477477 C786.367579,36.7477477 786,36.3768568 786,35.9189189 L786,25.972973 C786,25.5150351 786.367579,25.1441441 786.821429,25.1441441 Z" id="version-icon"></path>
        </g>
    </g>
</svg>